<?xml version="1.0" standalone="no"?>
<!DOCTYPE svg PUBLIC "-//W3C//DTD SVG 20010904//EN"
 "http://www.w3.org/TR/2001/REC-SVG-20010904/DTD/svg10.dtd">
<svg version="1.0" xmlns="http://www.w3.org/2000/svg"
 width="1050.000000pt" height="700.000000pt" viewBox="0 0 1050.000000 700.000000"
 preserveAspectRatio="xMidYMid meet">
<metadata>
Created by potrace 1.13, written by Peter Selinger 2001-2015
</metadata>
<g transform="translate(0.000000,700.000000) scale(0.100000,-0.100000)"
fill="#000000" stroke="none">
<path d="M0 5556 c0 -905 0 -914 20 -919 11 -3 20 -1 20 4 0 5 7 9 15 9 27 0
42 47 34 108 -5 31 -9 247 -10 479 -1 374 1 425 15 439 21 20 20 32 -4 78 -17
35 -19 60 -20 224 0 102 -2 187 -4 190 -3 2 1 19 8 36 16 38 30 105 27 128 -2
16 31 43 41 33 2 -3 47 -6 100 -9 53 -2 102 -7 109 -12 7 -4 14 -3 17 4 6 18
29 15 36 -4 8 -22 10 -21 -49 -27 -27 -3 -63 -9 -80 -15 -24 -7 -10 -10 72
-13 57 -3 107 -9 113 -15 6 -6 12 -81 15 -175 5 -184 13 -266 24 -274 9 -5 21
42 21 84 0 15 4 31 9 37 14 15 21 73 10 80 -5 3 -6 11 -2 17 8 11 9 113 2 288
-2 71 -4 78 -29 93 -15 8 -30 13 -32 10 -3 -3 -19 -7 -34 -8 -16 -2 -32 -4
-36 -5 -5 0 -8 -7 -8 -14 0 -8 -7 -14 -15 -14 -8 0 -12 4 -10 8 7 11 -41 20
-130 26 -119 7 -119 7 -132 16 -8 5 -13 4 -13 -3 0 -6 -9 -5 -22 4 -13 8 -35
17 -50 20 l-28 5 0 -913z"/>
<path d="M271 5581 c-17 -13 -24 -29 -27 -67 -7 -111 -15 -150 -34 -176 -22
-30 -28 -79 -35 -323 -3 -93 -8 -207 -11 -252 -3 -50 -2 -83 4 -83 5 0 12 -9
15 -19 3 -15 16 -20 54 -22 28 -2 57 -3 66 -1 27 5 35 61 26 183 -4 63 -5 251
-2 419 5 293 1 360 -24 360 -5 0 -19 -9 -32 -19z"/>
<path d="M5721 5569 c-41 -12 -99 -49 -128 -80 -23 -26 -57 -98 -49 -106 2 -2
7 5 11 17 19 61 121 134 183 132 19 -1 51 7 73 18 46 24 84 25 123 5 15 -8 41
-15 58 -15 34 0 92 -28 139 -67 l34 -28 -26 35 c-14 19 -48 49 -74 65 -47 29
-53 30 -179 32 -72 1 -146 -2 -165 -8z"/>
<path d="M5650 5388 c-11 -24 -20 -53 -20 -66 0 -13 -5 -33 -12 -45 -6 -12
-16 -44 -22 -72 -10 -42 -15 -50 -34 -49 -16 0 -24 -7 -28 -23 -4 -13 -12 -23
-20 -23 -18 0 -18 -10 0 -35 8 -12 10 -28 6 -40 -7 -19 -18 -20 -311 -25
l-304 -5 -5 -60 c-12 -131 -17 -133 -391 -136 -162 -1 -311 1 -332 6 -32 6
-48 2 -102 -25 -63 -32 -65 -32 -92 -15 -27 18 -27 18 -55 -16 l-28 -34 22
-17 c13 -10 28 -16 34 -14 6 2 11 -1 11 -8 0 -22 76 -127 89 -122 8 3 16 0 20
-6 4 -7 3 -8 -4 -4 -7 4 -12 2 -12 -3 0 -6 7 -11 15 -11 8 0 19 -9 25 -21 10
-17 7 -24 -17 -45 -15 -13 -31 -24 -35 -24 -5 0 -8 -13 -8 -30 0 -18 5 -30 13
-30 35 0 52 -28 57 -97 4 -57 8 -69 26 -77 21 -10 21 -11 4 -35 -15 -23 -16
-43 -11 -171 3 -80 4 -163 1 -185 -4 -35 -8 -40 -30 -40 -23 0 -25 -5 -32 -63
-4 -34 -10 -72 -13 -82 -6 -17 -2 -20 30 -20 20 0 57 -7 83 -15 39 -13 100
-15 351 -13 275 3 305 5 315 20 19 31 -4 36 -114 28 -58 -4 -196 -11 -306 -15
-198 -6 -201 -6 -207 14 -4 18 3 25 44 43 122 52 173 191 115 313 -13 28 -34
60 -47 72 -28 25 -106 62 -131 63 -19 0 -24 26 -9 49 12 19 677 9 697 -11 9
-9 15 -61 20 -163 6 -138 14 -172 35 -159 4 2 11 33 14 69 4 36 11 65 16 65 6
0 66 -32 87 -46 2 -1 -1 -17 -7 -35 -5 -19 -10 -26 -10 -16 -1 17 -2 17 -17 2
-14 -13 -19 -14 -26 -3 -5 8 -6 2 -2 -15 7 -29 -26 -114 -101 -259 -45 -88
-47 -140 -6 -200 16 -24 39 -51 50 -60 27 -23 17 -45 -22 -51 -18 -3 -122 -9
-232 -12 -110 -3 -210 -8 -223 -11 -21 -4 -21 -6 -6 -29 9 -13 13 -29 9 -35
-4 -7 -9 -41 -10 -76 -4 -75 -8 -84 -41 -84 -13 0 -34 -6 -45 -12 -18 -11 -23
-10 -40 11 -36 44 -18 100 31 96 8 -1 28 5 43 12 35 17 28 28 -55 84 l-58 40
-152 -3 -153 -3 -9 -60 c-13 -84 -12 -193 0 -205 8 -8 15 -7 26 3 15 15 87 13
118 -3 9 -5 193 -10 410 -11 326 -2 399 0 417 11 20 13 24 12 35 -3 12 -16 58
-17 688 -15 l675 3 0 36 c0 22 8 45 18 57 13 14 17 28 12 42 -13 40 10 50 116
50 l99 0 0 34 c0 30 -3 35 -27 38 -27 3 -28 6 -34 71 -3 37 -11 73 -17 79 -7
7 -12 37 -12 67 0 31 -6 74 -14 96 -8 22 -17 58 -20 80 -9 62 -23 114 -34 128
-5 7 -13 26 -16 43 l-7 32 70 21 c38 12 90 24 115 27 42 6 45 5 52 -20 7 -29
9 -29 104 -26 115 3 110 -8 110 263 0 168 3 236 12 245 8 8 49 12 119 12 132
0 145 -8 159 -95 6 -33 10 -138 10 -233 0 -180 6 -212 41 -212 16 0 18 3 10
18 -15 28 -18 356 -3 374 6 8 9 18 5 22 -4 4 -8 18 -9 32 -1 22 3 25 30 24 17
-1 33 -1 36 0 24 8 88 6 99 -3 11 -9 13 -9 8 0 -5 7 -1 12 10 11 10 0 47 3 83
7 36 4 79 6 97 6 34 -2 66 31 78 80 8 33 53 59 81 49 15 -6 23 -21 28 -50 9
-56 23 -80 45 -80 29 0 62 -32 65 -63 1 -15 5 -30 9 -33 10 -11 77 -6 92 6 21
17 15 61 -11 90 -12 14 -25 34 -28 45 -3 11 -24 30 -46 43 -58 33 -67 56 -35
87 19 20 34 25 63 24 27 -2 48 4 69 19 38 27 53 27 85 3 30 -24 46 -27 78 -17
57 19 77 68 46 111 -14 20 -57 24 -141 16 -16 -2 -93 -3 -170 -3 -77 0 -153 0
-170 -1 -16 0 -51 2 -77 5 -27 2 -48 2 -48 -1 0 -3 15 -21 34 -39 26 -25 35
-43 38 -75 9 -115 -5 -126 -174 -132 -114 -4 -128 -3 -151 15 -13 11 -26 17
-29 15 -9 -9 -220 -27 -244 -21 -35 9 -48 49 -28 87 8 17 22 33 30 36 21 8 19
63 -3 63 -188 3 -196 9 -192 160 1 58 -2 139 -7 180 l-9 75 -291 2 c-249 3
-293 1 -304 -12 -16 -19 -30 -19 -30 0 0 8 -4 15 -10 15 -5 0 -10 -9 -10 -20
0 -19 8 -20 298 -22 l297 -3 7 -245 c4 -135 4 -253 2 -262 -3 -10 -16 -21 -30
-24 -29 -7 -26 5 -30 -129 -4 -130 -4 -116 0 -189 2 -33 1 -82 -3 -110 -5 -46
-9 -51 -33 -54 -26 -3 -28 -1 -30 40 -1 24 -1 56 -1 73 l1 29 -18 -23 c-32
-44 -46 -22 -53 81 -9 137 -46 246 -100 299 -50 49 -98 72 -192 89 -44 8 -115
35 -190 71 -116 56 -123 58 -202 58 -45 0 -113 6 -150 13 -95 17 -138 15 -218
-11 -88 -29 -198 -51 -250 -51 -25 0 -64 -12 -104 -33 -57 -28 -69 -40 -102
-97 -21 -36 -47 -77 -58 -92 -12 -15 -18 -33 -15 -42 9 -22 -15 -76 -33 -76
-12 0 -14 11 -9 52 3 37 1 58 -9 68 -18 21 -34 534 -16 544 6 4 149 10 316 13
235 5 308 3 319 -6 10 -8 27 -10 46 -6 20 4 36 2 46 -6 23 -19 41 -19 72 -3
15 8 42 14 60 14 50 0 76 16 117 75 20 29 29 146 15 190 -12 35 -13 36 -54 32
-40 -4 -86 17 -86 39 0 11 -34 33 -52 34 -27 0 -68 43 -70 73 -1 15 -4 27 -6
27 -1 0 -12 -19 -22 -42z m-1317 -639 c13 -16 16 -34 14 -70 l-4 -49 36 0 c24
0 56 -12 95 -36 66 -39 75 -39 182 4 50 20 51 20 92 2 26 -12 54 -17 74 -13
25 4 38 0 52 -16 17 -19 18 -32 13 -123 -4 -64 -2 -125 6 -162 14 -71 6 -80
-83 -90 -111 -13 -136 22 -89 120 10 22 19 45 19 52 0 26 -46 35 -175 34 -156
-2 -207 10 -244 55 -22 28 -33 33 -68 33 -58 0 -84 14 -110 59 l-22 39 21 5
c21 6 21 7 -6 32 -20 19 -25 30 -18 37 6 6 8 24 5 39 -7 39 16 60 80 69 69 11
108 4 130 -21z m1467 -777 c0 -2 -6 -2 -12 1 -9 3 -13 -5 -13 -24 0 -22 4 -28
15 -24 8 4 4 -5 -9 -19 -22 -24 -23 -30 -17 -101 8 -92 10 -97 41 -111 21 -10
25 -9 29 10 2 11 4 -2 3 -31 -2 -42 1 -53 16 -57 24 -6 23 -86 -3 -168 -11
-34 -20 -72 -20 -83 -1 -11 -10 -36 -21 -55 -11 -19 -17 -26 -15 -15 3 11 2
26 -3 34 -7 11 -11 8 -17 -10 -4 -13 -8 -26 -9 -29 -8 -45 -65 -166 -65 -139
0 29 -39 30 -57 3 -15 -23 -16 -23 -29 -7 -7 10 -14 32 -14 48 0 20 -15 49
-46 88 -25 32 -48 56 -52 53 -3 -3 4 -16 16 -29 28 -30 28 -52 0 -54 -25 -2
-51 15 -42 28 10 17 -34 9 -57 -10 -21 -17 -22 -22 -11 -40 6 -11 12 -23 12
-26 0 -8 -44 -5 -59 4 -11 7 -10 11 4 19 11 6 16 16 12 26 -4 11 -1 16 11 16
13 0 12 4 -8 20 -24 19 -81 28 -79 13 4 -24 -4 -32 -28 -30 -40 3 -42 33 -4
55 29 16 40 32 23 32 -19 0 -118 -95 -124 -120 -5 -15 -14 -33 -22 -39 -12
-10 -18 -7 -30 18 -9 16 -24 36 -35 43 -36 25 -62 84 -64 142 -2 60 -4 63 -32
42 -12 -9 -16 -20 -12 -36 5 -18 3 -20 -6 -11 -8 8 -13 62 -15 154 -3 127 -2
145 15 165 19 25 53 22 53 -4 0 -8 5 -14 10 -14 14 0 12 -27 -2 -33 -10 -4
-10 -6 -1 -6 7 -1 28 13 48 30 24 22 35 40 35 59 0 70 54 190 85 190 17 0 65
-24 65 -32 0 -5 7 -8 15 -8 8 0 15 5 15 11 0 8 5 8 15 -1 8 -7 15 -9 15 -5 0
4 7 2 15 -5 8 -7 15 -9 15 -6 0 4 10 1 23 -6 12 -7 25 -13 30 -14 4 -1 8 -3
10 -4 5 -6 83 -9 104 -4 15 3 20 9 17 19 -4 8 -1 15 5 15 6 0 11 -4 11 -10 0
-5 7 -10 15 -10 9 0 12 6 8 18 -4 11 1 8 14 -7 25 -30 47 -34 98 -17 29 10 41
20 43 38 2 12 8 27 13 33 5 5 9 24 9 42 l0 33 25 -22 c14 -12 25 -24 25 -26z
m-399 -832 c38 0 58 -4 54 -10 -4 -7 2 -7 19 -1 39 16 51 -7 36 -69 -7 -30
-17 -49 -24 -47 -6 2 -21 0 -33 -4 -14 -5 -25 -4 -29 2 -8 13 -2 19 26 24 28
5 31 8 22 21 -4 6 -43 14 -87 17 -85 5 -135 22 -135 44 0 11 5 11 20 3 16 -8
20 -8 20 4 0 16 19 26 38 20 8 -2 41 -4 73 -4z"/>
<path d="M5167 3575 c-9 -9 -17 -19 -17 -23 0 -3 5 -1 10 4 10 10 125 2 137
-10 15 -15 -14 -21 -87 -18 -47 2 -81 -1 -85 -8 -3 -5 3 -11 14 -11 24 -2 28
-2 56 -11 11 -3 38 -10 60 -14 l40 -8 -35 -7 c-26 -6 -18 -7 29 -4 70 4 76 7
86 47 6 24 3 29 -42 49 -65 30 -144 37 -166 14z"/>
<path d="M8825 5101 c-3 -2 -84 -8 -182 -13 -278 -15 -317 -19 -333 -33 -21
-19 -22 -383 -1 -409 11 -13 34 -16 137 -16 72 0 125 -4 129 -10 4 -6 11 -7
17 -4 5 4 21 1 34 -7 21 -11 30 -10 63 8 27 14 43 18 55 11 24 -13 30 11 23
97 -8 109 -6 111 146 117 163 7 167 10 167 110 0 85 -6 108 -26 108 -8 0 -17
6 -20 14 -3 8 -13 18 -22 22 -18 8 -180 12 -187 5z"/>
<path d="M2045 5050 c-4 -6 1 -33 10 -60 21 -64 12 -134 -22 -166 -14 -13 -31
-20 -38 -18 -7 3 -15 -3 -17 -13 -3 -10 -8 3 -12 30 -10 61 -34 63 -58 6 l-17
-41 29 -43 c36 -52 40 -103 10 -130 -18 -17 -21 -17 -52 2 -48 28 -93 35 -108
18 -15 -18 -109 -20 -155 -4 -29 11 -36 9 -79 -20 -43 -30 -45 -34 -32 -52 14
-21 7 -75 -12 -88 -20 -15 -40 -61 -40 -95 0 -21 12 -59 28 -89 18 -34 30 -76
35 -121 4 -38 9 -75 12 -82 6 -15 102 -28 153 -19 34 6 40 11 52 47 7 23 25
50 39 61 23 17 31 18 63 7 31 -10 38 -18 49 -58 13 -42 17 -47 40 -44 32 4 57
-29 52 -69 -3 -18 1 -29 8 -30 97 -5 418 -8 435 -4 13 3 22 13 22 24 0 25 22
41 113 85 42 21 77 42 77 47 0 13 -12 11 -35 -4 -11 -7 -31 -12 -45 -11 -14 1
-44 -4 -68 -12 -42 -14 -168 -19 -207 -8 -20 5 -59 79 -50 95 3 4 27 11 53 14
26 3 56 10 68 15 11 4 28 4 37 -2 10 -5 39 -12 65 -15 26 -3 54 -12 63 -19 13
-11 22 -12 45 -4 15 6 38 9 51 5 28 -7 58 34 55 75 -2 30 26 55 80 71 24 6 38
3 68 -16 45 -28 58 -50 68 -108 l7 -42 50 -3 c27 -2 57 -10 66 -18 15 -13 17
-11 27 28 8 29 19 46 34 53 20 9 26 6 46 -23 12 -18 22 -35 22 -38 0 -4 14
-26 30 -51 17 -24 30 -48 30 -52 0 -5 11 -33 24 -62 l23 -54 7 38 c18 110 17
106 48 113 23 4 27 8 17 15 -11 7 -10 9 4 9 9 0 17 -4 17 -9 0 -11 19 -9 43 5
17 10 15 44 -2 44 -4 0 -6 16 -5 35 2 19 0 35 -4 35 -11 0 -6 53 7 79 7 11 19
22 29 23 9 0 22 2 27 2 6 1 22 13 35 26 l25 25 5 -40 c7 -53 -14 -89 -47 -80
-16 4 -23 1 -23 -9 0 -17 18 -29 81 -50 49 -17 54 -15 86 43 23 41 37 48 55
26 63 -78 94 -84 153 -31 23 21 52 37 76 41 45 8 55 18 34 35 -8 7 -12 16 -9
22 4 5 10 5 18 -1 8 -7 12 -4 13 12 1 12 7 23 12 25 5 2 7 10 4 19 -4 11 -2
14 5 9 24 -15 11 14 -13 30 -14 9 -23 19 -21 22 3 3 12 -1 21 -8 12 -10 15
-10 15 0 0 9 5 8 18 -3 10 -9 23 -44 30 -77 7 -33 17 -60 22 -60 6 0 10 24 10
53 0 40 -5 57 -20 70 -11 9 -20 22 -20 28 0 6 7 3 16 -5 22 -22 25 -20 18 11
-4 15 -7 33 -7 40 0 7 -4 13 -9 13 -4 0 -8 -6 -8 -14 0 -11 -6 -12 -35 -2 -19
7 -38 16 -42 21 -5 4 1 5 12 1 16 -5 16 -3 -5 15 l-25 20 25 -12 c14 -6 33
-18 43 -27 11 -10 17 -11 17 -4 0 7 -4 12 -10 12 -5 0 -7 6 -4 14 3 8 0 17 -7
22 -8 4 -10 3 -5 -4 4 -7 2 -12 -3 -12 -6 0 -11 7 -11 16 0 24 -48 81 -79 94
-25 10 -48 47 -37 58 7 6 66 -28 66 -38 0 -6 6 -10 14 -10 8 0 16 -6 19 -12 2
-7 8 -10 12 -5 10 9 -31 54 -57 63 -12 3 -17 12 -14 20 3 8 2 13 -3 10 -15
-10 -75 18 -101 47 -13 15 -32 27 -42 27 -9 0 -20 5 -23 10 -3 6 -14 10 -23 9
-14 0 -13 -2 3 -9 19 -8 19 -9 -2 -9 -12 -1 -23 4 -25 10 -2 6 -26 13 -52 15
-51 4 -76 17 -76 40 0 8 -4 14 -10 14 -5 0 -10 -5 -10 -12 0 -9 -3 -9 -12 0
-16 16 -29 15 -25 0 1 -8 -7 -13 -20 -12 -12 0 -20 -3 -17 -7 2 -4 -2 -9 -8
-12 -9 -3 -7 -7 5 -12 14 -6 11 -10 -20 -26 -46 -23 -49 -24 -32 -2 13 15 12
15 -8 3 -12 -8 -24 -24 -28 -37 -5 -23 -25 -33 -25 -13 0 6 -5 10 -11 10 -5 0
-7 -4 -4 -10 3 -5 -12 -12 -34 -16 -23 -4 -52 -17 -66 -29 -13 -13 -33 -26
-44 -30 -10 -3 -24 -19 -31 -35 -8 -19 -17 -27 -24 -22 -13 9 -238 6 -279 -4
-27 -6 -91 7 -129 27 -30 15 -76 11 -87 -9 -5 -10 -7 -56 -4 -102 5 -85 25
-146 44 -134 7 4 9 -6 7 -27 -2 -21 -8 -33 -15 -32 -7 2 -13 -3 -13 -11 0 -19
-28 -28 -51 -16 -25 14 -39 5 -39 -24 0 -28 -18 -46 -47 -46 -13 0 -23 -4 -23
-9 0 -11 -48 -5 -64 8 -10 8 -17 7 -27 -5 -10 -12 -24 -15 -60 -11 -41 5 -54
13 -96 57 -64 69 -70 82 -84 182 -10 74 -10 92 5 134 9 26 16 62 16 80 0 56
12 93 31 99 23 7 25 25 4 25 -8 0 -15 6 -16 13 -3 55 -7 68 -21 84 -10 10 -18
39 -19 66 -3 44 -5 49 -31 54 -16 3 -31 10 -34 14 -7 12 -21 11 -29 -1z"/>
<path d="M521 4908 c0 -13 -2 -88 -4 -167 -3 -142 -4 -144 -31 -167 -32 -28
-80 -31 -133 -9 -37 16 -51 12 -79 -25 -12 -15 -38 -111 -43 -156 0 -7 -8 -15
-17 -18 -8 -3 -12 -2 -9 4 5 8 -30 15 -37 8 -2 -2 -18 7 -35 20 -18 13 -33 20
-33 15 0 -4 -4 -2 -9 6 -9 14 -21 18 -66 24 -19 2 -20 -4 -22 -83 0 -47 1 -76
4 -65 10 38 24 45 87 45 72 0 100 -15 101 -56 2 -26 5 -29 35 -29 33 0 33 1
36 50 4 74 18 102 60 120 41 17 159 20 199 5 29 -11 52 -57 35 -74 -5 -5 -10
-22 -10 -37 0 -35 61 -75 90 -59 10 5 29 10 41 10 12 0 38 5 56 12 31 11 33
15 33 57 0 36 -6 51 -29 76 -16 16 -31 44 -33 60 -2 17 -13 46 -24 66 -17 29
-31 38 -68 48 -25 6 -46 16 -46 21 0 6 -6 10 -12 10 -10 0 -13 25 -12 94 1 51
4 98 8 104 3 6 1 14 -5 17 -5 4 -8 13 -5 21 3 7 1 16 -3 18 -5 3 -7 17 -6 31
2 14 -1 25 -6 25 -5 0 -9 -10 -8 -22z"/>
<path d="M9988 4758 c-3 -95 -3 -176 -1 -181 2 -4 12 -3 21 2 9 5 26 5 39 0
32 -12 39 8 23 74 -7 29 -15 95 -17 147 -4 83 -7 97 -26 112 -12 10 -25 18
-28 18 -4 0 -9 -78 -11 -172z"/>
<path d="M7098 4759 c-13 -8 19 -39 40 -39 10 0 26 -17 37 -37 11 -21 34 -54
52 -73 17 -20 37 -57 43 -83 11 -42 14 -45 32 -36 16 9 18 17 13 52 -13 88
-17 97 -44 112 -27 13 -46 46 -53 89 -2 15 -13 19 -56 20 -30 0 -58 -2 -64 -5z"/>
<path d="M9807 4433 c-14 -14 -38 -19 -104 -22 -54 -2 -81 -6 -72 -12 10 -6
11 -9 2 -9 -7 0 -13 -7 -13 -16 0 -8 -4 -12 -10 -9 -5 3 -10 1 -10 -5 0 -7 -7
-10 -15 -7 -8 4 -17 2 -19 -2 -3 -5 -17 -6 -32 -3 -14 3 -29 0 -33 -7 -4 -6
-25 -14 -47 -18 -21 -3 -50 -14 -63 -25 -20 -15 -42 -18 -130 -18 -135 0 -144
-5 -101 -59 29 -36 38 -41 75 -41 34 0 48 6 77 34 46 44 122 63 167 40 35 -17
38 -30 16 -54 -15 -16 -10 -18 57 -22 87 -7 91 -6 105 32 11 28 13 29 89 32
74 3 78 4 83 28 3 14 4 60 1 103 -5 75 -6 77 -23 60z"/>
<path d="M8073 4370 c-27 -11 -29 -28 -6 -45 13 -10 17 -28 18 -73 0 -33 3
-58 7 -56 4 3 5 -2 2 -10 -7 -18 14 -59 26 -51 5 3 6 21 3 39 -4 28 0 39 20
60 22 22 35 26 87 26 33 0 60 4 60 8 0 20 -28 32 -71 32 -64 0 -76 6 -89 46
-12 35 -20 39 -57 24z"/>
<path d="M10157 4233 c-4 -3 -7 -14 -7 -23 0 -10 -9 -29 -20 -43 l-21 -26 21
-21 c11 -11 20 -26 20 -34 0 -20 18 -24 112 -27 l83 -2 3 60 c3 60 3 61 -38
93 -22 17 -40 27 -40 21 0 -17 -40 -33 -66 -27 -13 4 -24 13 -24 21 0 16 -12
20 -23 8z"/>
<path d="M187 4136 c-10 -25 14 -250 27 -259 6 -4 25 -6 41 -5 25 3 30 8 30
28 0 16 -8 29 -24 37 -55 27 -64 108 -15 139 33 22 33 64 0 64 -13 0 -31 3
-39 6 -8 3 -17 -2 -20 -10z"/>
<path d="M8314 4123 c-18 -13 -32 -180 -60 -725 l-6 -128 75 0 c67 0 79 -3
109 -27 18 -15 35 -30 38 -34 10 -12 187 -18 199 -6 8 8 11 5 12 -13 0 -14 3
-45 6 -70 5 -46 7 -135 4 -180 -1 -14 0 -43 2 -65 3 -22 6 -47 6 -55 1 -8 8
-1 16 17 10 23 21 32 42 35 19 2 27 8 24 18 -2 8 -3 116 -2 240 0 124 -2 241
-7 260 -4 19 -5 134 -2 255 3 121 2 224 -2 230 -4 5 -8 21 -8 36 l0 27 283 6
c545 11 855 16 1136 17 157 1 293 4 303 7 11 2 18 14 18 28 0 23 -3 24 -69 24
-39 0 -73 5 -76 10 -10 16 -141 12 -202 -6 -32 -9 -74 -14 -97 -11 -23 3 -97
2 -166 -3 -79 -4 -130 -3 -138 3 -7 5 -34 12 -59 14 -57 5 -70 13 -22 13 61 0
79 10 79 41 l0 28 -337 3 c-186 2 -342 0 -347 -4 -6 -5 -3 -8 6 -8 24 0 80
-71 68 -86 -13 -15 -159 -25 -183 -12 -14 7 -17 16 -12 36 8 32 33 62 52 62 7
0 13 5 13 10 0 6 -109 10 -307 10 -170 0 -324 3 -343 5 -19 3 -40 2 -46 -2z
m372 -383 c3 -41 2 -80 -3 -86 -6 -9 -24 -9 -72 0 -73 13 -86 31 -70 89 11 41
27 49 80 41 38 -6 39 -6 39 22 0 59 20 7 26 -66z"/>
<path d="M822 4067 c-14 -16 -30 -179 -21 -204 3 -10 6 -36 5 -58 -1 -35 -4
-40 -26 -43 -34 -5 -51 -28 -40 -56 4 -13 8 -31 7 -42 -2 -17 7 -20 73 -24 85
-6 83 -14 -5 -25 -33 -4 -68 -14 -79 -23 -15 -15 -49 -17 -235 -19 -119 -1
-223 -4 -231 -7 -8 -3 -35 -9 -60 -13 l-45 -9 4 -149 c1 -83 7 -171 12 -197 4
-26 13 -150 20 -275 14 -287 13 -285 67 -296 62 -12 76 -39 82 -161 5 -100 5
-101 30 -99 80 4 159 3 184 -3 18 -4 31 -2 36 6 4 7 45 16 96 21 86 9 123 11
267 10 37 0 67 5 67 10 0 5 9 9 19 9 21 0 38 -47 22 -63 -5 -5 -7 -16 -4 -25
6 -13 -4 -14 -73 -9 -43 3 -87 8 -96 12 -15 6 -18 2 -18 -22 l0 -29 96 4 96 4
-4 -51 c-3 -29 -1 -54 4 -57 14 -9 9 -24 -9 -25 -15 0 -14 -2 3 -9 27 -11 31
-22 39 -108 6 -54 4 -77 -8 -102 -9 -17 -13 -38 -10 -46 6 -16 4 -16 -109 -14
-63 1 -78 -2 -78 -13 0 -12 24 -17 119 -22 105 -7 120 -10 124 -26 4 -15 -3
-23 -26 -33 -41 -17 -55 -34 -59 -74 l-3 -32 -210 -2 -209 -2 -8 34 c-4 19
-12 116 -17 215 -6 99 -13 219 -16 266 -3 54 -1 89 6 96 12 12 -5 53 -22 53
-15 0 -23 -29 -11 -43 8 -9 -5 -12 -60 -14 -84 -2 -98 -6 -98 -32 0 -13 -9
-21 -27 -25 l-28 -6 3 -618 c1 -339 4 -626 7 -637 4 -21 6 -21 142 -8 197 18
445 40 778 68 160 14 374 32 478 41 173 15 189 15 212 0 21 -14 25 -24 25 -65
0 -49 -31 -421 -52 -629 -6 -62 -9 -114 -6 -117 2 -2 28 -1 58 4 38 6 59 16
73 32 75 95 77 96 157 98 41 1 80 7 87 13 12 9 73 8 158 -4 19 -3 20 3 23 163
2 139 0 168 -13 179 -19 16 -19 56 0 64 11 4 15 21 15 62 0 31 7 81 16 111 9
30 13 65 10 79 -4 15 0 34 10 49 16 24 15 25 -14 42 -26 15 -28 20 -21 43 9
23 14 25 72 26 44 0 55 -2 37 -8 -18 -5 -15 -6 12 -2 72 10 276 5 319 -7 24
-7 48 -12 53 -10 5 1 6 -5 3 -13 -4 -9 -3 -15 1 -13 9 3 11 -14 5 -31 -3 -7 1
-20 8 -28 12 -14 9 -20 -18 -43 -26 -22 -29 -28 -17 -39 18 -17 19 -56 1 -49
-10 4 -12 -3 -9 -24 3 -18 0 -29 -7 -29 -7 0 -9 -5 -4 -12 4 -7 6 -24 4 -38
-2 -20 0 -23 10 -13 7 7 17 13 21 13 12 0 9 -34 -4 -50 -7 -8 -1 -4 14 9 15
13 26 27 23 30 -2 4 0 13 6 21 5 10 9 -23 9 -92 l0 -108 45 0 c41 0 45 2 45
25 0 14 9 30 21 37 11 7 27 27 35 44 12 25 25 34 62 44 26 7 55 14 65 17 16 4
17 28 16 341 0 185 -5 589 -10 897 -5 308 -9 575 -9 593 0 39 -26 74 -36 48
-3 -9 -14 -16 -23 -16 -9 0 -21 -4 -27 -9 -13 -12 -89 -29 -163 -37 -86 -9
-79 15 10 32 35 7 81 19 101 28 28 12 38 13 41 3 4 -9 8 -8 16 2 5 8 22 16 38
19 15 2 30 6 33 8 9 10 7 144 -2 144 -5 0 -6 6 -3 13 4 6 0 4 -8 -5 -17 -22
-37 -23 -37 -3 0 8 19 24 43 35 23 11 53 29 67 40 21 17 46 22 130 26 58 3
121 11 140 16 25 8 35 8 38 -1 5 -15 43 -13 66 4 27 20 35 19 29 -5 -3 -13 -1
-20 8 -19 23 1 44 13 45 27 1 6 2 18 2 26 1 8 27 29 57 46 30 17 57 35 60 40
3 4 8 35 11 67 5 55 45 245 81 383 9 36 18 92 20 125 l2 60 -19 -40 -19 -40
-1 32 c0 17 5 35 10 38 7 4 6 14 -2 28 -6 12 -13 33 -14 46 -5 42 -11 33 -19
-26 -4 -32 -10 -52 -12 -46 -3 8 -38 -17 -89 -64 -71 -64 -91 -90 -127 -161
-47 -95 -70 -112 -150 -112 -33 0 -54 8 -85 29 -22 16 -43 35 -47 40 -3 6 -24
20 -45 31 -30 15 -45 17 -70 10 -48 -14 -125 6 -166 43 -74 64 -96 133 -140
445 -4 28 -7 31 -25 22 -11 -6 -24 -8 -29 -5 -6 3 -10 1 -10 -5 0 -7 -7 -10
-15 -6 -12 4 -15 -2 -15 -28 0 -22 -6 -36 -16 -40 -24 -9 -46 -7 -39 4 4 6 11
8 16 5 5 -4 15 -3 21 1 9 6 5 10 -11 14 -20 4 -33 -3 -65 -39 -23 -24 -40 -48
-38 -53 1 -5 -1 -7 -6 -4 -5 3 -19 -6 -30 -19 -22 -25 -42 -33 -42 -16 0 5 7
14 15 21 17 14 21 70 4 70 -5 0 -7 -4 -4 -10 3 -5 1 -10 -6 -10 -8 0 -8 -4 1
-15 11 -13 10 -14 -2 -10 -12 5 -65 -51 -61 -65 1 -3 -4 -11 -10 -19 -10 -12
-9 -14 6 -8 9 3 17 4 17 2 0 -7 -84 -49 -92 -47 -5 1 -8 -2 -8 -7 0 -5 -30
-27 -66 -50 -36 -23 -62 -35 -59 -29 4 7 1 6 -7 -3 -18 -21 -52 -39 -77 -39
-26 0 -83 34 -74 44 4 4 0 4 -9 1 -8 -3 -22 0 -29 7 -18 16 -35 21 -75 21 -24
1 -31 4 -26 16 4 11 -3 9 -25 -7 -17 -12 -35 -22 -40 -22 -4 0 -21 -11 -38
-25 -29 -23 -29 -24 -7 -25 13 0 42 9 64 20 44 21 62 25 55 13 -3 -5 15 -6 40
-4 25 2 50 -2 56 -8 8 -8 8 -11 -2 -11 -7 0 -9 -5 -5 -11 5 -8 9 -8 14 1 6 9
14 9 35 -2 23 -12 25 -16 11 -21 -10 -4 -15 -3 -11 3 3 6 1 10 -4 10 -6 0 -11
-4 -11 -9 0 -5 -14 -6 -31 -2 -41 8 -208 -11 -239 -28 l-25 -14 19 22 c19 21
19 21 0 21 -10 0 -35 -9 -54 -20 l-35 -21 33 28 33 28 -153 -2 c-143 -2 -248
9 -248 26 0 4 11 14 25 21 56 30 28 35 -196 36 l-221 2 -41 39 c-52 49 -95 53
-115 10 -17 -36 -53 -36 -69 -1 -15 32 -2 48 47 61 19 5 35 13 37 19 4 13
-124 171 -157 195 -35 24 -94 33 -108 16z m1175 -572 c0 -8 -4 -12 -8 -9 -4 2
-10 -5 -14 -16 -3 -11 -13 -20 -20 -20 -19 0 -30 -21 -16 -30 8 -4 1 -12 -19
-20 -25 -11 -30 -17 -26 -36 5 -18 0 -24 -24 -32 -21 -8 -28 -16 -24 -26 4
-10 1 -16 -7 -16 -8 0 -27 -14 -43 -30 l-29 -30 29 0 c22 0 26 -3 14 -10 -8
-5 -25 -10 -36 -10 -12 0 -36 -16 -53 -35 -38 -44 -40 -84 -6 -145 13 -25 45
-87 70 -137 25 -51 47 -93 51 -93 3 0 2 5 -2 12 -4 7 -3 8 5 4 6 -4 9 -11 6
-16 -7 -11 5 -41 15 -35 4 2 5 -7 2 -20 -5 -28 -12 -31 -30 -13 -7 7 -12 8
-12 2 0 -6 4 -14 10 -20 6 -6 3 -10 -10 -11 -29 -2 -52 -27 -37 -42 8 -8 8
-11 -1 -12 -7 -1 -16 -3 -22 -4 -5 -1 -18 -3 -27 -4 -14 -1 -15 -3 -4 -10 9
-6 10 -11 2 -15 -6 -4 -9 -12 -5 -17 3 -5 10 -6 16 -3 7 4 8 2 4 -4 -4 -6 -13
-9 -21 -6 -8 3 -19 -4 -26 -18 -6 -13 -17 -26 -23 -30 -7 -4 -4 -9 6 -13 12
-5 15 -12 9 -28 -6 -16 -3 -30 11 -49 11 -16 16 -28 11 -28 -4 0 -8 -11 -8
-25 0 -14 3 -25 6 -25 13 0 17 -27 7 -41 -8 -11 -9 -11 -4 3 3 10 1 20 -4 23
-15 9 -17 -29 -2 -47 12 -14 11 -18 -12 -33 -27 -18 -36 -41 -13 -32 8 3 14
-1 14 -8 0 -7 -8 -10 -19 -7 -11 3 -18 -1 -18 -11 0 -8 -11 -17 -24 -19 -19
-4 -24 -1 -21 14 2 11 -2 18 -11 18 -8 0 -12 -4 -9 -10 10 -15 -6 -12 -26 6
-22 20 -46 9 -28 -12 6 -8 8 -14 3 -14 -4 0 1 -7 12 -15 17 -13 17 -14 2 -15
-10 0 -19 5 -19 10 -1 6 -3 15 -4 20 -1 6 -3 13 -4 18 -1 4 -5 1 -10 -6 -7
-11 -9 -10 -14 3 -4 9 -3 13 3 10 5 -3 15 3 22 14 12 19 13 19 32 3 20 -16 20
-16 7 1 -7 9 -10 17 -7 17 4 0 4 5 1 10 -4 6 -13 7 -23 1 -14 -7 -17 -4 -19
20 -1 17 2 27 8 24 5 -4 7 -10 5 -14 -3 -4 1 -8 9 -8 17 0 20 14 4 19 -10 3
-17 26 -18 61 -1 10 -6 15 -11 12 -6 -4 -7 -11 -4 -17 4 -6 -1 -8 -11 -6 -12
2 -20 14 -22 33 -2 17 -13 50 -25 75 -18 39 -22 42 -28 25 l-7 -20 -6 20 c-24
87 -25 200 -3 244 20 37 110 173 167 251 22 30 56 84 76 120 35 63 78 117 202
250 34 36 61 68 61 72 0 6 68 75 76 78 0 0 1 -7 1 -15z m1693 -300 c0 -19 -86
-57 -137 -60 -22 -2 -45 -5 -50 -8 -5 -3 -27 -8 -48 -11 -47 -6 -94 -19 -125
-36 -23 -12 -44 -2 -32 16 25 37 138 72 247 77 28 1 52 4 55 7 11 11 76 37 83
33 4 -2 7 -10 7 -18z m-12 -95 c-17 -27 -76 -46 -243 -81 -163 -34 -155 -33
-155 -15 0 23 59 44 184 66 65 11 130 27 145 35 14 8 38 14 54 15 25 0 26 -2
15 -20z m-2265 -923 c26 -54 52 -120 57 -147 5 -27 20 -75 33 -107 37 -88 42
-140 17 -188 -17 -34 -26 -41 -60 -46 -42 -6 -59 4 -75 46 -7 18 -8 18 -21
-10 -7 -16 -13 -38 -14 -47 0 -11 -8 -18 -18 -18 -27 0 -31 8 -22 41 5 16 5
31 1 33 -14 9 1 67 23 91 12 13 48 31 80 40 76 22 68 28 -12 8 -49 -12 -65
-13 -77 -3 -12 10 -12 15 -2 31 10 14 11 32 5 71 -12 71 -22 274 -14 294 3 9
15 14 28 12 18 -2 34 -25 71 -101z m867 -697 c6 -11 15 -20 20 -20 5 0 21 -5
37 -11 20 -7 24 -12 14 -18 -8 -5 -10 -14 -6 -20 5 -9 10 -9 20 -1 20 17 32
-28 12 -47 -13 -13 -17 -12 -36 8 -20 22 -21 22 -43 3 -13 -10 -26 -23 -29
-28 -4 -5 -13 -6 -20 -4 -8 3 -22 1 -32 -4 -22 -11 -33 17 -32 87 1 56 13 64
54 33 29 -22 41 -15 18 10 -21 23 -21 32 -2 32 8 0 19 -9 25 -20z"/>
<path d="M7458 4038 c-31 -16 -62 -36 -70 -45 -12 -15 -11 -15 10 -4 12 6 22
8 22 3 0 -10 -50 -35 -57 -29 -5 6 -93 -84 -93 -95 0 -4 -7 -8 -15 -8 -22 0
-19 8 23 48 l37 37 -28 3 c-31 4 -52 -15 -63 -57 -4 -15 -2 -26 7 -32 11 -6 7
-15 -19 -42 -17 -18 -32 -40 -32 -49 0 -9 -11 -30 -25 -46 -13 -16 -21 -33
-17 -37 4 -5 1 -5 -5 -1 -7 4 -18 4 -23 1 -16 -10 7 -45 25 -39 15 6 19 -4 16
-38 -2 -12 3 -16 13 -12 11 4 16 0 17 -12 0 -16 2 -15 10 4 9 24 29 22 29 -3
0 -19 35 -28 59 -16 11 6 27 11 35 11 9 0 35 9 59 19 23 11 60 27 81 35 46 19
148 24 154 7 2 -6 12 -11 21 -11 18 0 91 -62 91 -77 0 -7 16 -28 70 -91 11
-13 20 -29 20 -34 0 -9 44 -92 56 -107 2 -2 12 5 21 15 10 11 36 29 58 40 39
20 84 86 85 124 1 8 7 2 15 -15 10 -24 14 -26 14 -10 1 11 8 33 16 49 8 15 15
37 15 47 0 11 5 27 11 37 13 20 -5 77 -21 67 -5 -3 -10 1 -10 10 0 9 4 14 9
11 14 -9 19 53 6 72 -7 9 -18 34 -24 55 -11 33 -44 65 -63 59 -3 -1 -12 6 -20
15 -9 12 -9 15 0 9 6 -4 12 -3 12 3 0 14 -64 62 -68 51 -2 -6 -8 -10 -14 -10
-6 0 -8 6 -5 14 5 14 -31 56 -48 56 -5 0 -1 -6 10 -13 17 -13 16 -14 -6 -11
-13 1 -28 3 -34 3 -5 1 -3 6 5 11 8 5 12 10 8 11 -5 1 -11 2 -15 4 -5 1 -26 5
-48 10 -22 4 -44 11 -50 15 -5 4 -38 7 -72 6 -33 0 -59 3 -56 7 11 18 -87 1
-139 -25z"/>
<path d="M10049 3881 c-2 -6 -49 -13 -104 -16 -54 -3 -106 -11 -114 -18 -12
-9 -13 -9 -7 1 10 17 -4 15 -25 -4 -15 -13 -21 -14 -41 -3 -13 7 -30 14 -38
16 -31 7 -250 4 -262 -3 -7 -4 -102 -10 -213 -12 -110 -3 -253 -7 -318 -9
l-117 -4 1 -403 c0 -221 4 -407 7 -412 12 -15 52 -35 52 -25 0 20 72 25 104 8
27 -15 72 -16 376 -12 343 5 345 5 362 28 10 12 18 30 18 40 0 10 8 17 19 17
20 0 48 -27 38 -36 -3 -4 3 -16 14 -28 18 -19 30 -21 117 -19 53 1 134 4 180
8 65 4 88 2 105 -10 27 -19 47 -19 83 0 16 8 43 15 61 15 45 0 55 24 59 148 2
57 6 107 9 110 3 3 24 9 48 13 26 4 -16 7 -110 8 l-153 1 0 -84 c0 -47 -4 -87
-8 -90 -8 -4 -205 -10 -759 -22 -275 -5 -282 -5 -292 15 -16 29 -15 643 1 659
9 9 70 12 213 12 110 0 317 3 461 7 l261 6 -1 50 c-1 45 -18 75 -27 48z"/>
<path d="M7170 3400 c-12 -8 -13 -12 -2 -19 8 -4 13 -11 13 -15 -2 -18 13 -66
20 -66 5 0 9 -6 9 -13 0 -18 33 -47 53 -47 18 0 47 48 47 78 0 22 -84 92 -109
92 -9 0 -23 -5 -31 -10z"/>
<path d="M7415 3383 c-13 -23 -4 -88 13 -89 32 -4 36 -6 17 -14 -18 -7 -16
-10 17 -24 51 -22 91 -20 119 5 23 19 23 20 2 10 -12 -6 -34 -10 -50 -10 -21
1 -23 3 -8 6 11 3 29 12 40 19 11 8 32 14 48 14 42 0 30 21 -31 51 -29 14 -58
31 -64 37 -19 19 -91 15 -103 -5z"/>
<path d="M6804 3243 c0 -27 -2 -91 -4 -144 -2 -53 0 -101 4 -107 7 -12 44 -16
68 -7 10 4 12 30 11 108 -1 56 -2 123 -3 150 l0 47 -38 0 -37 0 -1 -47z"/>
<path d="M7081 3268 c-7 -20 -31 -225 -31 -270 0 -12 16 -16 76 -20 41 -3 80
-10 87 -17 6 -6 17 -11 24 -11 10 0 10 8 -3 38 -40 93 -54 150 -54 225 l0 77
-45 0 c-38 0 -47 -4 -54 -22z"/>
<path d="M8020 3160 c-14 -26 2 -58 32 -62 31 -4 36 -43 9 -58 -31 -16 -26
-26 22 -39 35 -10 50 -10 85 2 23 8 45 11 48 6 2 -5 4 -25 3 -46 -2 -23 4 -49
15 -65 10 -15 15 -31 12 -36 -6 -11 67 -47 112 -56 l32 -5 0 54 c0 42 4 57 19
67 16 12 20 29 23 126 4 136 20 127 -198 120 -85 -3 -157 -1 -160 4 -10 15
-43 8 -54 -12z"/>
<path d="M7443 3147 c9 -24 -18 -52 -55 -55 -18 -2 -39 -9 -47 -17 -16 -16
-56 -3 -83 28 -15 16 -18 17 -18 3 0 -9 -5 -15 -12 -13 -21 4 -20 -31 0 -37
13 -4 23 -20 27 -44 4 -20 10 -31 12 -24 3 8 11 5 24 -10 10 -13 18 -20 19
-16 0 4 15 1 33 -7 29 -12 42 -11 107 6 40 10 82 19 92 19 17 0 18 2 3 31 -9
17 -19 28 -22 25 -3 -3 0 -12 7 -21 11 -13 6 -15 -37 -15 -28 0 -72 -2 -99 -5
-38 -4 -44 -3 -26 4 13 6 22 19 22 32 0 12 5 19 13 16 6 -2 18 3 25 12 10 14
11 13 5 -4 -6 -18 -5 -19 11 -6 16 13 16 15 1 24 -13 7 -14 12 -4 23 16 19 23
18 57 -11 44 -37 48 -31 12 15 -35 44 -78 74 -67 47z"/>
<path d="M7957 3033 c-3 -5 1 -46 9 -92 14 -81 14 -85 -11 -166 -18 -60 -40
-104 -79 -158 -30 -42 -57 -84 -60 -95 -13 -40 -51 -63 -97 -60 -43 3 -44 4
-42 36 2 30 0 32 -31 32 -29 0 -38 7 -69 53 -37 55 -44 109 -19 140 18 21 6
26 -74 28 -86 2 -155 33 -174 78 -10 26 -15 29 -32 20 -14 -8 -19 -20 -17 -52
0 -23 -2 -89 -5 -147 -3 -58 -8 -224 -11 -370 -2 -146 -7 -312 -9 -370 -3 -58
-8 -215 -11 -350 -3 -135 -8 -323 -11 -417 -6 -146 -4 -173 8 -173 8 0 65 17
128 38 152 51 171 56 168 40 -3 -14 2 -14 76 2 55 11 61 15 61 37 0 9 15 23
32 32 38 19 41 28 11 34 -20 4 -20 4 4 6 24 1 28 6 33 44 10 66 2 132 -15 133
-8 1 -21 2 -27 3 -7 0 -13 5 -13 11 0 5 13 7 29 4 35 -7 37 -5 45 74 7 62 7
62 -19 62 -36 0 -65 17 -65 39 0 16 6 18 44 14 50 -6 45 -14 60 99 l5 37 -52
3 c-50 3 -52 4 -55 35 l-3 31 58 -1 58 -2 6 100 c7 115 25 322 39 445 13 117
14 113 -11 100 -11 -7 -23 -9 -26 -6 -3 3 5 10 19 15 21 8 26 18 32 60 4 28
11 53 17 57 6 3 14 16 19 28 7 16 9 17 9 4 1 -16 23 -17 71 -3 21 7 43 86 35
125 -4 17 -2 36 3 43 17 21 24 70 23 156 -1 75 -4 89 -30 128 -16 24 -32 40
-34 36z m-466 -775 c-6 -29 -17 -97 -23 -151 -6 -57 -14 -93 -19 -86 -4 7 -5
17 -3 21 3 4 -2 5 -10 2 -14 -6 -21 5 -17 29 0 4 -12 7 -29 7 -16 0 -30 5 -30
11 0 24 22 49 45 49 25 0 29 8 40 72 4 22 13 38 24 41 9 2 -5 7 -31 11 -42 6
-48 10 -48 31 0 21 5 24 48 27 26 2 51 0 56 -4 5 -4 4 -29 -3 -60z"/>
<path d="M9895 2899 c-71 -3 -332 -10 -580 -13 -247 -4 -452 -9 -454 -12 -2
-2 19 -4 47 -4 l51 0 25 -50 c14 -28 23 -57 20 -65 -5 -13 20 -14 190 -10 179
4 199 6 223 25 28 22 73 26 103 10 13 -7 21 -7 25 0 7 12 55 13 71 2 32 -21
48 -113 30 -169 -7 -22 -5 -23 41 -22 57 1 108 17 58 18 -23 1 -26 4 -15 11
12 7 12 12 2 22 -15 15 -16 64 -2 73 6 4 9 18 8 32 -4 35 24 53 54 34 52 -33
75 -41 120 -41 43 0 48 3 54 25 3 14 16 27 28 30 11 3 89 4 171 3 147 -3 150
-3 153 -25 2 -13 -6 -36 -17 -52 -27 -38 -26 -51 4 -51 30 0 43 23 43 74 0 46
12 55 75 57 26 1 53 2 60 3 7 0 13 18 15 41 4 62 -14 66 -264 63 -115 -1 -267
-5 -339 -9z"/>
<path d="M8206 2784 c-15 -19 -24 -39 -21 -44 3 -6 -1 -10 -9 -10 -10 0 -16 9
-16 24 0 23 -16 36 -46 36 -12 0 -14 -13 -12 -62 3 -60 4 -63 31 -66 17 -2 27
1 27 9 0 9 3 10 11 2 19 -19 -7 -53 -41 -53 -27 0 -30 -3 -30 -30 0 -16 3 -30
7 -30 3 0 35 5 70 11 l63 11 -3 46 c-2 44 0 47 23 47 26 0 29 -9 16 -61 l-7
-26 48 7 c55 8 82 25 40 25 -20 0 -30 7 -37 26 -6 14 -10 27 -10 28 0 8 117
-18 125 -28 16 -20 45 -27 45 -12 0 8 7 17 16 20 20 8 8 26 -18 26 -11 0 -33
8 -49 17 -27 16 -29 16 -49 -2 -17 -15 -24 -16 -46 -6 -25 11 -25 13 -10 30
15 16 14 19 -17 48 -57 54 -69 56 -101 17z"/>
<path d="M9347 2599 c-6 -21 -7 -21 -161 -14 l-156 7 0 -70 c0 -39 5 -74 10
-77 15 -10 12 -35 -5 -35 -10 0 -4 -14 20 -46 19 -25 33 -50 29 -55 -3 -5 6
-9 20 -9 13 0 36 -4 50 -10 23 -8 26 -15 26 -58 0 -54 12 -70 70 -95 20 -9 28
-16 18 -16 -24 -1 -22 -11 7 -43 33 -38 48 -36 39 4 -6 30 -5 31 11 18 9 -7
33 -46 52 -84 19 -39 56 -95 81 -124 25 -30 55 -68 67 -85 12 -18 53 -77 92
-132 38 -55 82 -119 97 -143 24 -38 25 -42 7 -32 -19 10 -20 9 -11 -17 6 -16
13 -34 15 -42 4 -11 8 -11 21 0 27 22 41 -11 48 -115 8 -105 -1 -187 -15 -148
-10 27 -39 29 -39 3 0 -10 -7 -24 -15 -31 -8 -7 -15 -18 -15 -25 0 -8 -5 -15
-11 -17 -7 -2 -9 -13 -5 -26 6 -18 12 -20 39 -15 l32 6 -19 -21 c-13 -15 -23
-19 -31 -12 -9 7 -16 -1 -27 -29 -11 -26 -21 -39 -33 -38 -19 2 -43 -28 -32
-39 4 -4 14 1 23 12 14 17 14 16 1 -11 -21 -45 -49 -194 -45 -240 l3 -40 53 3
c45 3 52 1 52 -15 0 -27 -59 -95 -77 -89 -9 4 -11 2 -7 -6 5 -8 2 -9 -10 -5
-9 4 -14 3 -11 -2 3 -5 1 -12 -5 -16 -5 -3 -10 -19 -10 -36 l0 -29 153 0 c83
0 157 -4 163 -8 11 -7 54 -85 54 -97 0 -12 -34 -3 -76 20 -35 20 -48 23 -67
14 -15 -7 -46 -7 -90 -1 -41 5 -70 5 -74 -1 -3 -5 -21 -6 -39 -2 l-34 6 0 -69
0 -68 45 -22 c38 -18 63 -22 153 -22 59 -1 151 -5 205 -9 82 -6 101 -11 122
-31 14 -13 24 -28 23 -34 -1 -6 1 -26 5 -43 4 -18 10 -46 13 -63 l6 -30 173 0
174 0 -2 53 -2 52 -62 -3 c-58 -4 -63 -2 -63 17 0 23 3 24 78 21 42 -1 52 1
52 14 0 11 -10 16 -34 16 -18 0 -47 3 -64 6 -25 5 -31 2 -37 -15 -7 -25 -27
-27 -45 -6 -7 8 -28 15 -46 15 -31 0 -34 -2 -28 -24 10 -42 -13 -38 -54 10
-26 30 -38 53 -35 65 3 11 9 19 14 19 5 0 4 11 -1 25 -5 14 -7 31 -4 39 3 8
-8 41 -25 75 l-31 60 32 17 c24 12 45 15 87 9 31 -3 104 -9 164 -12 l107 -5 0
851 0 851 -511 0 -512 0 7 46 c3 26 6 58 6 72 0 20 3 22 14 13 10 -8 16 -9 21
-1 9 15 -3 30 -21 23 -13 -5 -15 13 -14 133 1 77 1 142 0 147 -2 4 -3 13 -4
20 -1 8 -23 13 -67 15 -61 3 -67 1 -72 -19z m1141 -580 c1 -8 -1 -32 -6 -54
-7 -37 -10 -40 -37 -36 -17 2 -39 4 -50 5 -11 1 -23 5 -27 10 -3 5 -21 11 -39
13 -18 2 -38 8 -45 14 -7 6 -19 7 -25 3 -9 -5 -10 -2 -5 11 5 15 4 16 -9 5
-10 -8 -19 -9 -27 -2 -7 5 -24 9 -38 8 -29 -3 -65 12 -55 22 4 4 73 9 153 12
202 7 206 7 210 -11z m-544 -155 c6 0 16 -2 22 -2 6 -1 15 -26 19 -54 11 -75
11 -82 0 -90 -6 -4 -2 -8 8 -8 9 0 17 -7 17 -15 0 -8 -5 -15 -11 -15 -5 0 -7
6 -4 13 4 6 0 3 -9 -7 -8 -10 -13 -23 -9 -29 3 -6 1 -7 -5 -3 -7 4 -9 18 -6
32 4 15 2 24 -6 24 -6 0 -9 -4 -5 -9 3 -5 1 -12 -3 -15 -5 -3 -23 9 -40 27
-25 26 -31 42 -35 87 -3 41 0 59 12 71 12 12 19 14 30 5 7 -6 19 -11 25 -12z
m530 -64 c-1 -41 -3 -106 -5 -145 l-4 -70 -110 1 c-192 3 -272 9 -288 22 -13
11 -17 10 -25 -5 -6 -10 -14 -15 -18 -11 -15 15 19 39 45 33 80 -21 73 -21
181 -2 47 9 109 19 139 22 l54 7 -24 19 c-13 10 -28 19 -34 19 -5 0 -4 -4 4
-9 9 -6 10 -11 2 -15 -6 -4 -13 -1 -16 6 -6 14 -50 21 -75 12 -37 -14 -190
-18 -202 -6 -4 4 2 32 12 63 11 31 21 71 22 88 1 20 8 31 18 32 8 0 75 3 149
5 74 2 137 7 140 10 3 2 12 3 21 2 12 -3 15 -18 14 -78z"/>
<path d="M5179 2475 c-58 -31 -64 -130 -12 -213 l29 -47 92 -1 93 -1 25 36
c25 37 31 61 14 61 -5 0 -17 14 -25 31 -18 34 -13 80 11 100 21 17 17 25 -17
39 -23 10 -39 10 -69 1 -26 -8 -46 -8 -65 -1 -34 13 -44 12 -76 -5z"/>
<path d="M10325 2469 c-16 -10 -30 -24 -30 -31 0 -14 103 -37 168 -38 l37 0 0
45 0 45 -72 -1 c-54 0 -81 -6 -103 -20z"/>
<path d="M9089 2187 c-14 -18 -29 -42 -33 -55 -4 -12 -13 -22 -20 -22 -7 0
-23 -11 -36 -25 -18 -19 -22 -32 -18 -63 3 -21 1 -47 -5 -57 -8 -15 -7 -17 7
-12 27 11 54 -10 61 -45 4 -18 13 -44 20 -58 8 -16 11 -44 8 -74 -6 -47 -6
-48 -19 -25 -17 31 -17 56 -1 62 7 3 4 6 -6 6 -16 1 -17 7 -11 46 5 39 4 44
-10 39 -9 -3 -23 -1 -31 6 -9 7 -18 11 -20 8 -3 -3 -9 -54 -15 -114 -12 -145
-29 -302 -35 -341 l-6 -32 68 5 c37 3 74 11 81 16 9 8 18 5 33 -10 24 -26 27
-27 68 -6 28 14 31 20 26 43 -6 30 15 58 35 46 15 -9 12 -21 -7 -41 -17 -17
-17 -17 -1 -11 10 3 20 2 23 -3 4 -6 43 -7 95 -3 57 4 94 2 102 -5 7 -5 33
-15 57 -22 65 -17 91 -48 91 -110 0 -27 5 -50 10 -50 6 0 10 5 10 10 0 6 7 10
15 10 8 0 15 8 16 18 0 9 8 -5 17 -32 9 -27 18 -44 20 -38 2 7 10 12 18 12 8
0 14 5 14 10 0 6 7 10 15 10 10 0 15 10 15 28 0 33 -27 92 -41 92 -6 0 -8 4
-5 9 3 5 -6 21 -21 37 -14 15 -26 37 -27 49 -1 11 -8 20 -16 21 -29 1 -38 -16
-32 -61 5 -47 -11 -63 -23 -24 -4 12 -30 56 -59 98 -28 43 -56 86 -62 96 -10
18 -12 18 -34 2 -14 -9 -27 -17 -30 -17 -13 0 -2 54 13 65 21 15 21 37 2 75
-9 17 -15 32 -15 35 1 22 -1 25 -10 20 -16 -10 -38 13 -45 46 -4 16 -23 46
-43 67 l-37 39 -28 -39 c-33 -46 -33 -55 -5 -85 14 -15 18 -27 12 -33 -14 -14
-59 12 -62 38 -3 21 -5 21 -33 6 -41 -21 -52 -10 -35 31 9 21 11 37 5 40 -5 4
-5 14 2 26 5 11 7 29 4 40 -6 17 -9 18 -22 7 -13 -10 -17 -10 -20 0 -3 6 -11
12 -19 12 -24 0 -15 25 21 60 19 19 35 30 35 25 0 -5 14 10 32 34 30 41 31 44
15 70 -22 37 -38 36 -68 -2z"/>
<path d="M3663 1511 c-18 -11 -35 -31 -38 -43 -5 -26 -14 -167 -18 -283 l-2
-80 181 -3 c160 -2 183 0 195 14 17 21 16 292 -1 324 -18 34 -51 48 -150 65
-52 9 -104 18 -115 21 -11 2 -35 -5 -52 -15z m147 -57 c60 -8 72 -24 68 -92
l-3 -47 -59 -3 c-79 -4 -96 11 -96 88 0 60 6 74 27 66 7 -3 35 -8 63 -12z"/>
<path d="M8943 1399 c-18 -5 -33 -13 -33 -18 0 -5 21 -16 46 -26 26 -10 75
-39 111 -66 l64 -49 -2 75 c-1 42 -5 78 -9 80 -17 10 -148 14 -177 4z"/>
<path d="M8823 1336 c-18 -8 -67 -25 -110 -36 -43 -12 -81 -25 -86 -29 -4 -4
2 -16 13 -26 27 -24 26 -39 -2 -24 -20 11 -20 9 5 -20 15 -18 27 -37 27 -42 0
-6 5 -7 11 -4 6 4 13 -2 16 -13 4 -18 11 -20 82 -15 76 6 78 5 152 -37 40 -23
90 -44 109 -47 19 -3 43 -10 52 -14 22 -11 29 11 33 100 l3 66 -51 48 c-91 84
-192 121 -254 93z"/>
<path d="M8550 1258 c-42 -9 -664 -169 -810 -208 -135 -36 -519 -156 -528
-164 -20 -20 28 -10 199 43 107 33 243 76 302 95 60 19 127 35 150 35 53 -1
507 111 659 162 32 10 64 19 73 19 8 0 15 7 15 15 0 8 -3 15 -7 14 -5 -1 -28
-5 -53 -11z"/>
<path d="M9597 1243 c-2 -4 -8 -28 -12 -52 -5 -31 -4 -42 4 -37 8 5 9 -11 4
-54 -6 -64 8 -110 34 -110 18 0 17 47 -2 57 -9 6 -12 17 -8 31 4 18 11 22 28
18 20 -5 25 0 39 43 9 28 16 59 16 70 0 31 -27 26 -44 -8 -15 -29 -46 -49 -46
-30 0 6 5 20 11 31 8 16 8 24 -4 35 -8 8 -17 11 -20 6z"/>
<path d="M5205 1030 c3 -5 0 -7 -8 -4 -9 3 -25 -8 -42 -31 -32 -42 -43 -116
-23 -154 12 -22 90 -78 112 -80 13 -1 -5 251 -20 266 -15 15 -28 17 -19 3z"/>
<path d="M2641 1020 c-54 -6 -71 -33 -20 -30 50 3 53 2 38 -16 -8 -10 -24 -14
-47 -12 -25 3 -36 -1 -43 -14 -6 -10 -14 -16 -19 -13 -4 3 -8 -25 -8 -62 0
-66 26 -143 47 -143 5 0 12 -12 16 -27 5 -21 8 -24 16 -12 7 11 9 9 9 -10 0
-22 3 -23 38 -17 20 3 45 6 55 6 12 0 17 8 17 28 0 15 5 33 12 40 7 7 13 22
13 34 0 12 7 23 15 25 13 4 13 3 1 -5 -12 -9 -12 -13 2 -27 10 -9 15 -20 12
-25 -3 -5 -2 -11 3 -14 4 -2 9 12 10 32 4 50 12 54 12 5 0 -28 5 -43 16 -47
25 -9 64 -7 64 4 0 6 7 10 15 10 11 0 15 12 15 48 0 26 2 58 4 72 2 14 -3 35
-11 48 -7 12 -11 27 -8 32 8 14 -38 13 -52 -1 -8 -8 -17 -5 -32 10 -12 12 -21
27 -21 34 0 8 -4 7 -10 -3 -7 -11 -10 -11 -10 -2 0 7 -5 10 -12 6 -7 -5 -5
-11 8 -21 10 -8 18 -19 16 -25 -2 -6 4 -8 15 -4 14 6 16 5 6 -5 -10 -10 -17
-8 -35 11 -20 21 -23 22 -26 7 -3 -17 -26 -18 -51 -2 -12 7 -11 10 5 16 18 6
17 8 -5 16 -31 12 -19 19 44 27 33 4 60 1 80 -8 17 -8 24 -15 17 -15 -10 -1
-10 -4 0 -15 16 -17 28 -11 28 14 0 11 9 27 19 37 19 17 15 18 -97 18 -64 0
-137 -2 -161 -5z"/>
<path d="M7775 1015 c-32 -10 -505 -157 -551 -170 -7 -2 -15 -36 -19 -76 -6
-58 -12 -77 -31 -93 -13 -12 -37 -33 -54 -48 -17 -16 -38 -28 -47 -28 -13 0
-15 -10 -11 -57 7 -82 33 -98 202 -127 l70 -12 -35 -13 c-89 -32 -103 -49 -54
-63 84 -22 724 -120 748 -114 33 8 57 52 57 102 0 20 -10 83 -22 140 l-21 103
-56 3 -57 3 13 45 c13 45 14 46 48 42 19 -2 35 -1 35 2 0 5 -42 200 -57 264
-4 18 -8 20 -19 11 -11 -9 -14 -8 -14 5 0 9 5 16 10 16 18 0 10 31 -15 55 -27
28 -59 31 -120 10z m-136 -378 c9 -11 24 -28 35 -38 18 -18 18 -18 -5 -24 -13
-3 -47 -6 -75 -8 -29 -1 -50 -5 -48 -9 15 -24 -333 -33 -398 -10 -53 19 -50
50 6 56 12 2 40 15 62 30 l39 27 184 -2 c169 -2 185 -4 200 -22z"/>
<path d="M8335 884 c-8 -9 -15 -12 -15 -7 -1 4 -7 -3 -15 -17 -19 -33 -19
-131 0 -176 12 -30 18 -34 37 -29 30 9 30 9 51 0 29 -12 42 11 42 76 -1 40 -6
64 -17 75 -14 15 -17 13 -34 -15 -18 -30 -44 -42 -44 -21 0 13 49 60 61 60 5
0 9 5 9 10 0 6 -6 9 -12 8 -7 -2 -14 7 -16 19 -4 28 -27 36 -47 17z"/>
<path d="M9255 796 c-11 -6 -22 -12 -24 -13 -2 -1 4 -9 13 -19 14 -13 14 -19
4 -32 -11 -13 -10 -15 4 -9 14 5 19 0 24 -21 9 -45 36 -102 48 -102 20 0 33
15 30 33 -1 9 4 17 11 17 7 0 16 14 20 30 4 17 11 30 15 30 5 0 7 7 3 16 -3 9
-6 28 -7 43 -1 27 -17 34 -47 20 -9 -5 -20 -4 -26 2 -15 15 -46 18 -68 5z"/>
<path d="M3287 726 c-16 -95 -37 -153 -60 -168 -6 -3 -12 -20 -13 -36 -1 -16
-7 -39 -13 -50 -9 -17 -8 -24 5 -34 8 -7 25 -22 37 -33 17 -16 42 -21 112 -26
81 -6 95 -4 140 17 28 12 63 26 78 29 l27 7 0 118 0 118 -70 1 c-42 0 -70 -4
-70 -10 0 -13 -68 -41 -81 -33 -6 3 -8 17 -5 30 4 15 -2 35 -19 60 -33 48 -61
52 -68 10z"/>
<path d="M9224 595 c-19 -13 -21 -25 -23 -136 -1 -66 -2 -124 -3 -128 0 -3 0
-79 1 -168 l1 -163 98 0 98 0 -7 97 c-4 54 -9 165 -13 246 -3 81 -8 152 -11
157 -4 6 -13 10 -20 10 -19 0 -38 37 -32 60 4 14 -3 22 -26 29 -38 14 -39 14
-63 -4z"/>
<path d="M4264 573 c-3 -16 -12 -46 -20 -68 -8 -22 -13 -62 -12 -90 1 -27 -2
-69 -6 -92 -3 -23 -17 -105 -30 -182 l-22 -141 94 0 95 0 -8 63 c-4 34 -9 94
-10 132 -2 39 -7 102 -10 140 -13 147 -14 175 -4 180 15 10 10 38 -10 63 -26
30 -49 28 -57 -5z"/>
<path d="M8680 515 c-7 -8 -21 -15 -31 -15 -10 0 -23 -9 -29 -20 -13 -24 -71
-28 -90 -5 -18 21 -35 19 -66 -10 -22 -21 -25 -27 -14 -40 23 -28 -21 -18 -52
12 -21 20 -31 24 -39 16 -8 -8 2 -21 39 -48 50 -36 76 -75 53 -83 -16 -5 -14
-29 4 -36 12 -4 15 -30 15 -146 0 -126 2 -141 17 -138 17 3 28 38 12 38 -6 0
-7 5 -4 11 10 16 12 69 3 63 -4 -3 -8 24 -8 60 0 36 4 68 10 71 16 10 47 -13
71 -52 12 -21 33 -54 46 -74 13 -20 25 -54 26 -75 l2 -39 183 -2 182 -2 0 100
c0 55 5 120 11 145 9 34 9 48 0 57 -8 8 -11 8 -11 -2 0 -10 -3 -11 -14 -2 -7
6 -21 9 -30 5 -12 -5 -15 -2 -10 10 3 9 15 16 25 16 14 0 19 7 19 25 0 23 -2
25 -21 14 -29 -15 -166 6 -193 29 -10 10 -31 43 -47 75 -31 60 -39 66 -59 42z"/>
<path d="M2395 365 c-3 -8 -7 -22 -10 -30 -2 -8 -15 -16 -27 -17 -42 -2 -47
-3 -54 -11 -4 -4 -13 2 -21 12 -8 13 -20 17 -34 14 -18 -5 -20 -3 -15 15 6 18
3 20 -21 18 -16 -2 -28 -9 -27 -18 1 -7 -5 -19 -12 -26 -10 -9 -14 -10 -14 -1
0 6 -9 0 -20 -14 -27 -34 -25 -41 10 -34 21 5 32 2 38 -10 8 -13 21 -15 71
-10 33 3 63 1 66 -4 3 -5 53 -8 111 -6 99 2 107 4 124 27 19 25 20 25 50 8 36
-21 65 -24 54 -6 -4 7 -3 8 4 4 7 -4 12 -1 12 7 0 8 -6 15 -12 14 -7 0 -22 1
-33 2 -19 1 -19 2 -2 12 23 13 11 32 -14 24 -35 -11 -89 -13 -89 -3 0 38 -124
68 -135 33z"/>
<path d="M3582 347 c-3 -14 -7 -15 -18 -6 -11 9 -18 8 -30 -2 -13 -10 -17 -10
-24 0 -4 8 -12 11 -18 7 -6 -3 -22 -2 -37 4 -23 9 -28 7 -32 -10 -6 -24 -26
-26 -43 -5 -18 22 -35 18 -48 -10 -6 -14 -27 -33 -46 -42 -19 -9 -32 -21 -29
-28 5 -16 51 -26 59 -14 7 12 44 11 44 -1 0 -19 48 -10 62 12 15 23 43 17 34
-8 -4 -10 2 -14 19 -14 18 0 25 5 25 20 0 11 6 20 14 20 23 0 28 -18 9 -29
-17 -10 -17 -10 2 -12 11 0 42 -2 68 -4 27 -2 68 2 92 11 36 12 48 12 71 2 21
-10 28 -10 31 -1 3 7 15 29 29 48 22 32 22 36 6 31 -12 -4 -25 0 -32 9 -12 15
-9 16 28 12 45 -4 68 5 58 22 -9 13 -39 14 -51 2 -14 -14 -96 -16 -120 -4 -11
6 -42 10 -69 10 -38 -2 -50 -6 -54 -20z"/>
<path d="M6165 366 c-5 -3 -26 -7 -46 -10 -25 -5 -38 -13 -42 -26 -4 -17 0
-20 31 -20 35 0 111 -28 138 -50 6 -6 54 -12 105 -14 100 -5 174 -23 251 -62
26 -13 50 -24 53 -24 3 0 5 19 3 42 -3 40 -4 42 -58 60 -219 75 -399 118 -435
104z"/>
<path d="M2855 329 c-18 -18 -36 -27 -46 -24 -11 4 -20 -1 -23 -13 -7 -22 -78
-39 -84 -21 -3 6 -9 6 -18 -2 -23 -19 -16 -24 35 -24 38 0 55 5 75 24 23 22
65 24 51 2 -3 -5 -1 -12 4 -15 5 -3 11 3 14 14 7 26 33 36 53 19 14 -12 14
-14 -5 -21 -35 -13 -23 -27 22 -26 23 1 67 0 97 -2 69 -4 111 7 89 24 -18 14
-20 43 -3 50 8 3 14 -1 14 -9 0 -8 7 -15 15 -15 18 0 19 -12 3 -28 -13 -13 9
-26 38 -20 23 4 31 28 10 28 -18 0 -40 46 -30 61 3 6 16 -1 29 -16 22 -23 54
-33 67 -20 10 10 -5 55 -18 55 -8 0 -14 -5 -14 -11 0 -8 -4 -8 -14 0 -7 6 -47
11 -92 11 -44 -1 -91 2 -106 5 -16 3 -28 1 -28 -5 0 -5 11 -10 24 -10 28 0 42
-26 20 -34 -27 -10 -52 -6 -58 9 -3 8 -15 15 -26 15 -11 0 -23 7 -26 15 -9 22
-35 16 -69 -16z"/>
<path d="M4006 270 c-25 -63 -30 -70 -56 -70 -37 0 -52 -20 -44 -59 6 -27 4
-31 -14 -31 -28 0 -52 -10 -52 -22 0 -6 16 -8 35 -6 33 4 35 2 35 -24 0 -15
-5 -28 -11 -28 -8 0 -8 -5 1 -15 9 -10 31 -15 74 -15 l61 0 2 170 c1 94 1 170
-1 170 -1 0 -15 -31 -30 -70z"/>
<path d="M6087 283 c-15 -4 -17 -14 -15 -56 3 -49 5 -52 50 -80 29 -18 63 -30
85 -31 l38 -1 3 47 c3 43 1 49 -23 60 -18 8 -22 14 -13 19 23 15 -88 52 -125
42z"/>
<path d="M2164 210 c-10 -3 -20 -13 -22 -22 -2 -14 3 -16 28 -13 17 2 37 7 43
12 14 10 35 9 59 -1 9 -4 22 -5 28 -1 5 3 26 1 44 -6 28 -10 38 -10 50 0 14
11 16 11 16 -5 0 -11 10 -24 23 -29 12 -6 21 -14 20 -20 -3 -14 58 -75 75 -75
11 0 13 8 9 29 -6 26 -3 30 23 36 37 8 53 -1 47 -27 -13 -46 25 -76 68 -54
l27 14 -36 17 c-33 16 -35 19 -19 30 9 7 23 11 30 8 7 -3 11 3 10 15 0 11 -6
18 -13 15 -16 -6 -27 14 -17 30 13 21 12 36 -5 41 -43 12 -136 15 -227 8 -59
-5 -105 -5 -112 0 -12 9 -113 8 -149 -2z"/>
<path d="M2036 193 c-3 -10 -2 -34 2 -53 5 -19 5 -46 1 -60 -4 -14 -7 -37 -8
-52 l-1 -28 187 0 c102 0 184 2 181 5 -3 3 -59 8 -124 10 -160 7 -181 9 -188
16 -3 3 7 5 23 4 18 -1 32 4 35 12 4 10 0 13 -14 8 -11 -3 -28 -2 -37 4 -10 6
-15 11 -10 12 4 1 12 3 17 4 6 1 16 3 23 4 6 1 19 6 27 11 13 9 13 11 0 20 -8
5 -25 10 -36 10 -13 0 -24 8 -27 20 -3 12 -1 18 5 14 5 -4 4 4 -3 17 -7 13
-12 27 -11 32 4 16 -37 6 -42 -10z"/>
</g>
</svg>
